<svg width="44" height="44" viewBox="0 0 44 44" fill="none" xmlns="http://www.w3.org/2000/svg">
<path d="M41 22C41 32.4934 32.4934 41 22 41C11.5066 41 3 32.4934 3 22C3 11.5066 11.5066 3 22 3C32.4934 3 41 11.5066 41 22Z" fill="#1E1E1E"/>
<path d="M15.6667 30.8667V13.9778H19.0891V30.8667H15.6667Z" fill="#B54971"/>
<path d="M24.5334 30.8667V13.9778H27.9559V30.8667H24.5334Z" fill="#B54971"/>
<path d="M22 1.5C33.3218 1.5 42.5 10.6782 42.5 22C42.5 33.3218 33.3218 42.5 22 42.5C10.6782 42.5 1.5 33.3218 1.5 22C1.5 10.6782 10.6782 1.5 22 1.5Z" stroke="white" stroke-width="3"/>
</svg>
