<svg width="45" height="45" viewBox="0 0 45 45" fill="none" xmlns="http://www.w3.org/2000/svg">
<g id="Play Icon">
<path d="M45 22.5C45 34.9264 34.9264 45 22.5 45C10.0736 45 0 34.9264 0 22.5C0 10.0736 10.0736 0 22.5 0C34.9264 0 45 10.0736 45 22.5Z" fill="#1E1E1E"/>
<path d="M31.7372 20.4445C33.4544 21.5392 33.3879 24.0683 31.6156 25.0712L19.7439 31.7888C17.9165 32.8228 15.66 31.4669 15.7151 29.3679L16.0845 15.3183C16.1397 13.2194 18.4643 11.9839 20.2349 13.1125L31.7372 20.4445Z" fill="#B54971"/>
<path d="M22.5 0.5C34.6503 0.5 44.5 10.3497 44.5 22.5C44.5 34.6503 34.6503 44.5 22.5 44.5C10.3497 44.5 0.5 34.6503 0.5 22.5C0.5 10.3497 10.3497 0.5 22.5 0.5ZM20.5039 12.6904C18.471 11.3946 15.8216 12.7289 15.5986 15.0752L15.585 15.3057L15.2148 29.3545C15.1515 31.7644 17.6603 33.3488 19.7861 32.3311L19.9902 32.2236L31.8623 25.5068C33.8971 24.3553 34.0342 21.5057 32.1904 20.1494L32.0059 20.0225L20.5039 12.6904ZM16.584 15.3311C16.6278 13.6744 18.4074 12.6776 19.8301 13.4531L19.9658 13.5342L31.4688 20.8662C32.8239 21.7302 32.8154 23.691 31.501 24.5557L31.3691 24.6357L19.498 31.3535C18.0557 32.1697 16.2845 31.1587 16.2158 29.54L16.2148 29.3809L16.584 15.3311Z" stroke="white"/>
</g>
</svg>
